<?xml version="1.0" standalone="no"?>
<!DOCTYPE svg PUBLIC "-//W3C//DTD SVG 20010904//EN"
 "http://www.w3.org/TR/2001/REC-SVG-20010904/DTD/svg10.dtd">
<svg version="1.0" xmlns="http://www.w3.org/2000/svg"
 width="835.000000pt" height="835.000000pt" viewBox="0 0 835.000000 835.000000"
 preserveAspectRatio="xMidYMid meet">

<g transform="translate(0.000000,835.000000) scale(0.100000,-0.100000)"
fill="#000000" stroke="none">
<path d="M2085 6260 c-1149 -1149 -2087 -2090 -2084 -2092 3 -2 943 -940 2090
-2086 l2085 -2083 2088 2087 2087 2087 -23 25 c-30 31 -4098 4100 -4130 4129
l-24 22 -2089 -2089z m4062 -112 c1080 -1080 1963 -1967 1963 -1973 0 -13
-3922 -3935 -3935 -3935 -13 0 -3935 3922 -3935 3935 0 13 3922 3935 3935
3935 5 0 893 -883 1972 -1962z"/>
</g>
</svg>
